{"title":"Naruto_Shippuuden_227 BZINGAZ.mkv","uid":6644322,"size":63831307,"categoryP":"video","categoryS":"tv_shows","magnet":"?xt=urn:btih:78ccea329c88924ddb7c66d79fb2a14c0d8e321c&amp;dn=Naruto_Shippuuden_227+BZINGAZ.mkv&amp;tr=udp%3A%2F%2Ftracker.openbittorrent.com%3A80&amp;tr=udp%3A%2F%2Fopen.demonii.com%3A1337&amp;tr=udp%3A%2F%2Ftracker.coppersurfer.tk%3A6969&amp;tr=udp%3A%2F%2Fexodus.desync.com%3A6969","seeders":0,"leechers":0,"uploader":"bzingaz","files":1,"time":1314887068,"description":"Naruto_Shippuuden_227 BZINGAZ in mkv format 60 mb size. please seed and comment.\n\nDetails are:\n\n\nVideo\nID                               : 1\nFormat                           : AVC\nFormat/Info                      : Advanced Video Codec\nFormat profile                   : &lt;a class=&quot;__cf_email__&quot; href=&quot;/cdn-cgi/l/email-protection&quot; data-cfemail=&quot;074f6e606f474b342936&quot;&gt;[email&amp;#160;protected]&lt;/a&gt;&lt;script data-cfhash='f9e31' type=&quot;text/javascript&quot;&gt;\n/* &lt;![CDATA[ */!function(){try{var t=&quot;currentScript&quot;in document?document.currentScript:function(){for(var t=document.getElementsByTagName(&quot;script&quot;),e=t.length;e--;)if(t[e].getAttribute(&quot;data-cfhash&quot;))return t[e]}();if(t&amp;&amp;t.previousSibling){var e,r,n,i,c=t.previousSibling,a=c.getAttribute(&quot;data-cfemail&quot;);if(a){for(e=&quot;&quot;,r=parseInt(a.substr(0,2),16),n=2;a.length-n;n+=2)i=parseInt(a.substr(n,2),16)^r,e+=String.fromCharCode(i);e=document.createTextNode(e),c.parentNode.replaceChild(e,c)}t.parentNode.removeChild(t);}}catch(u){}}()/* ]]&gt; */&lt;/script&gt;\nFormat settings, CABAC           : Yes\nFormat settings, ReFrames        : 8 frames\nMuxing mode                      : Header stripping\nCodec ID                         : V_MPEG4/ISO/AVC\nDuration                         : 23mn 10s\nBit rate                         : 320 Kbps\nWidth                            : 848 pixels\nHeight                           : 480 pixels\nDisplay aspect ratio             : 16:9\nFrame rate mode                  : Variable\nFrame rate                       : 23.976 fps\nColor space                      : YUV\nChroma subsampling               : 4:2:0\nBit depth                        : 8 bits\nScan type                        : Progressive\nBits/(Pixel*Frame)               : 0.033\nStream size                      : 51.7 MiB (85%)\nWriting library                  : x264 core 115\nEncoding settings                : cabac=1 / ref=8 / deblock=1:1:1 / analyse=0x3:0x113 / me=umh / subme=10 / psy=1 / psy_rd=0.00:0.00 / mixed_ref=1 / me_range=16 / chroma_me=1 / trellis=2 / 8x8dct=1 / cqm=0 / deadzone=21,11 / fast_pskip=1 / chroma_qp_offset=0 / threads=12 / sliced_threads=0 / nr=0 / decimate=1 / interlaced=0 / bluray_compat=0 / constrained_intra=0 / bframes=5 / b_pyramid=2 / b_adapt=2 / b_bias=0 / direct=1 / weightb=1 / open_gop=0 / weightp=2 / keyint=240 / keyint_min=24 / scenecut=40 / intra_refresh=0 / rc_lookahead=40 / rc=2pass / mbtree=1 / bitrate=320 / ratetol=1.0 / qcomp=0.60 / qpmin=3 / qpmax=69 / qpstep=4 / cplxblur=20.0 / qblur=0.5 / ip_ratio=1.40 / aq=2:0.60\nLanguage                         : English\nColor primaries                  : BT.601-6 525, BT.1358 525, BT.1700 NTSC, SMPTE 170M\nTransfer characteristics         : BT.709-5, BT.1361\nMatrix coefficients              : BT.601-6 525, BT.1358 525, BT.1700 NTSC, SMPTE 170M\n\nAudio\nID                               : 2\nFormat                           : Vorbis\nFormat settings, Floor           : 1\nCodec ID                         : A_VORBIS\nDuration                         : 23mn 10s\nBit rate mode                    : Variable\nBit rate                         : 48.0 Kbps\nChannel(s)                       : 2 channels\nSampling rate                    : 44.1 KHz\nCompression mode                 : Lossy\nStream size                      : 7.95 MiB (13%)\nWriting library                  : aoTuV Beta 5 (UTC 2006-10-24)\nLanguage                         : un\nWriting application              : HandBrake\n\nText\nID                               : 3\nFormat                           : ASS\nCodec ID                         : S_TEXT/ASS\nCodec ID/Info                    : Advanced Sub Station Alpha\nCompression mode                 : Lossless\n","torrent":{"xt":"urn:btih:78ccea329c88924ddb7c66d79fb2a14c0d8e321c","amp;dn":"Naruto_Shippuuden_227+BZINGAZ.mkv","amp;tr":["udp%3A%2F%2Ftracker.openbittorrent.com%3A80","udp%3A%2F%2Fopen.demonii.com%3A1337","udp%3A%2F%2Ftracker.coppersurfer.tk%3A6969","udp%3A%2F%2Fexodus.desync.com%3A6969"],"infoHash":"78ccea329c88924ddb7c66d79fb2a14c0d8e321c","infoHashBuffer":{"type":"Buffer","data":[120,204,234,50,156,136,146,77,219,124,102,215,159,178,161,76,13,142,50,28]},"announce":[],"urlList":[]}}